<svg width="206" height="53" viewBox="0 0 206 53" fill="none" xmlns="http://www.w3.org/2000/svg">
<path d="M32.5354 47.3942C32.5498 47.1116 32.5707 46.8239 32.5981 46.5334C32.3804 46.4599 32.2009 46.3618 32.2009 46.3618C32.2009 46.3618 31.9521 46.8081 31.3091 47.2616C30.5694 47.7828 29.5262 48.3343 27.775 48.348C26.2589 48.3603 26.2726 46.4779 26.6972 45.2069C27.0195 44.2444 26.5026 43.2697 26.4658 42.6526C26.4233 41.9266 26.716 41.502 27.0707 41.3095C27.2394 41.2179 27.452 41.1732 27.7022 41.1711C27.7073 41.1711 27.7123 41.1711 27.7174 41.1711C28.9595 41.1703 29.7922 41.3679 30.9587 42.2193C31.8238 42.8494 32.118 43.398 32.118 43.398C32.2924 43.3202 32.5902 43.1601 33.0984 43.2019C33.1035 43.2019 33.1085 43.2034 33.1136 43.2034C33.3753 41.918 33.6658 40.7911 33.8576 40.0911C33.3573 40.218 32.8649 40.5561 32.7012 41.7161C32.6644 41.9756 32.4424 42.1631 32.1879 42.1631C32.1634 42.1631 32.1389 42.1609 32.1144 42.1573C31.8303 42.1177 31.6328 41.8545 31.6731 41.5712C31.8808 40.0983 32.6154 39.244 33.8569 39.032C41.7064 37.6882 42.134 37.2146 42.8657 33.4772C42.8167 33.364 42.7179 33.1679 42.5896 32.9243C42.3214 33.9912 41.6646 34.7908 41.0648 35.1765C39.5689 36.1389 37.9446 36.4432 36.8452 36.5289C36.5748 36.5499 36.3066 36.5599 36.0427 36.5599C34.8143 36.5599 33.686 36.3357 32.924 35.9262C32.6709 35.7907 32.5765 35.4764 32.7113 35.2233C32.8468 34.971 33.1612 34.8758 33.4142 35.0114C34.1611 35.4122 35.4436 35.596 36.7644 35.4937C37.7449 35.4173 39.1896 35.1483 40.5039 34.3034C40.9776 33.9985 42.0474 32.7995 41.55 30.9929C40.7786 30.5646 39.7563 30.5452 38.9316 30.0729C38.6749 29.9259 38.5012 29.5748 38.4283 29.1941C38.2892 29.1646 38.1515 29.1235 38.016 29.0672C37.5437 28.8726 36.9519 28.6166 36.2122 28.2793C34.3868 27.4466 35.0435 31.2322 29.0259 30.7218C24.7102 30.3556 21.971 27.8791 19.3984 30.4709C16.5265 33.364 17.0498 37.7401 20.0314 40.3326C24.1198 43.8868 25.4736 48.162 25.9007 51.0349C25.9519 51.0349 26.0028 51.0371 26.0541 51.0371C28.3294 51.0371 30.5333 50.7264 32.6269 50.1475C32.4734 48.72 32.5325 47.454 32.5354 47.3942Z" fill="white"/>
<path d="M41.1325 32.4041C40.2815 33.5824 39.1202 34.5605 37.7 35.1998L30.8342 38.2916C30.3033 38.5305 29.7611 38.7112 29.2146 38.836C27.9236 39.1315 26.6091 39.1164 25.3657 38.8267C25.9803 37.6907 26.8532 36.6862 27.9477 35.9112C28.3928 35.5961 28.8747 35.3187 29.3909 35.0865L36.2567 31.9947C37.6769 31.3554 39.1791 31.1338 40.625 31.2777C41.1726 31.332 41.4544 31.9583 41.1325 32.4041Z" fill="#F29B4C"/>
<path d="M48.7668 28.4261C47.9158 29.6044 46.7545 30.5825 45.3343 31.2218L38.4685 34.3136C37.9375 34.5524 37.3954 34.7332 36.8488 34.858C35.5579 35.1534 34.2434 35.1384 33 34.8486C33.6146 33.7127 34.4875 32.7082 35.582 31.9332C36.0271 31.6181 36.509 31.3407 37.0252 31.1085L43.891 28.0167C45.3112 27.3774 46.8134 27.1558 48.2593 27.2997C48.8068 27.354 49.0886 27.9803 48.7668 28.4261Z" fill="#F29B4C" stroke="#3C2C2D" stroke-width="0.865126"/>
<path d="M29.2146 38.836C27.9236 39.1315 26.6091 39.1163 25.3657 38.8267C25.9803 37.6907 26.8532 36.6862 27.9477 35.9112C28.8081 36.6253 29.2824 37.7164 29.2146 38.836Z" fill="#FFF273"/>
<path d="M26.187 36.4793C24.9525 36.0015 23.5661 36.6524 23.097 37.8902C22.8235 38.6117 22.1573 39.1097 21.3878 39.1678C21.0913 39.1902 21.0321 39.5997 21.3102 39.7051L24.4502 40.8952C25.688 41.3644 27.0942 40.7576 27.5546 39.5166C28.0057 38.3008 27.3963 36.9474 26.187 36.4793Z" fill="#FFF273"/>
<path d="M25.4673 36.9929C24.159 36.4857 23.825 36.1907 23.2887 37.6058C22.9761 38.4307 22.2491 39.0132 21.4238 39.1002C21.1057 39.1338 21.031 39.5993 21.3259 39.7111L24.6546 40.9727C25.9667 41.47 26.3485 41.3613 26.8756 39.9427C27.0939 39.3552 25.8521 39.3214 25.6953 38.8687C25.4812 38.2506 26.2071 37.2797 25.4673 36.9929Z" fill="#FE6768"/>
<path d="M29.1713 38.5613C29.1308 38.4399 29.0513 37.6938 28.8199 37.1825C28.5764 36.6447 28.0452 35.9915 27.9481 35.9109C27.546 36.1958 27.1733 36.5118 26.8325 36.8542" stroke="#3C2C2D" stroke-width="0.865126" stroke-miterlimit="10" stroke-linecap="round" stroke-linejoin="round"/>
<path d="M26.8321 36.8545C27.1728 36.512 27.5456 36.196 27.9477 35.9112C28.3929 35.5961 28.8748 35.3186 29.391 35.0864L36.2567 31.9946C37.6769 31.3553 39.1792 31.1337 40.625 31.2777C41.1726 31.332 41.4543 31.9583 41.1325 32.4041C40.2815 33.5824 39.1202 34.5604 37.7 35.1998L30.8343 38.2916C30.3033 38.5304 29.7611 38.7111 29.2146 38.836C28.7036 38.953 28.1889 39.0213 27.6766 39.043" stroke="#3C2C2D" stroke-width="0.865126" stroke-miterlimit="10" stroke-linecap="round" stroke-linejoin="round"/>
<path d="M26.187 36.4793C24.9525 36.0015 23.5661 36.6524 23.097 37.8902C22.8235 38.6117 22.1573 39.1097 21.3878 39.1678C21.0913 39.1902 21.0321 39.5997 21.3102 39.7051L24.4502 40.8952C25.688 41.3644 27.0942 40.7576 27.5546 39.5166C28.0057 38.3008 27.3963 36.9474 26.187 36.4793Z" stroke="#3C2C2D" stroke-width="0.865126" stroke-miterlimit="10" stroke-linecap="round" stroke-linejoin="round"/>
<path d="M33.3343 35.1004C33.0813 34.9648 32.7927 34.9704 32.6571 35.2227L28.9717 34.073L23.9531 35.4931L19.7086 39.1016C16.7269 36.5091 16.4723 33.3634 19.3443 30.4703C21.9168 27.8785 24.6561 30.355 28.9717 30.7212C34.9894 31.2316 34.3326 27.446 36.158 28.2787C36.8977 28.6161 37.4896 28.872 37.9618 29.0667C38.0973 29.1229 38.235 29.164 38.3742 29.1935C38.447 29.5742 38.6207 29.9253 38.8774 30.0724C39.7021 30.5446 40.7244 30.564 41.4958 30.9923C41.9933 32.7989 40.9234 33.9979 40.4497 34.3028C39.1355 35.1478 37.6907 35.4167 36.7102 35.4931C35.3895 35.5955 34.0812 35.5012 33.3343 35.1004Z" fill="white"/>
<path d="M43.2154 29.3084C43.2147 29.4534 43.2089 29.5983 43.2046 29.7432C43.2032 29.803 43.201 29.865 43.1988 29.9299L43.2003 29.9133C43.1988 29.9414 43.1974 29.9696 43.196 29.9977C43.1794 30.4295 43.1361 30.8787 42.9458 31.4936C43.1462 31.8534 43.3034 32.1439 43.4274 32.3804C43.9472 30.5708 43.7201 29.6134 43.2075 29.0266C43.2147 29.1138 43.2183 29.2068 43.2154 29.3084Z" fill="white"/>
<path d="M31.2562 11.2203C31.1221 11.048 30.921 10.9441 30.704 10.9341C30.4848 10.9254 30.2865 11.0076 30.138 11.1662C29.1583 12.2166 28.3407 14.5899 27.9673 15.8083L29.1165 15.8523C30.4113 15.9035 31.6433 16.2452 32.7269 16.8335C32.874 13.8034 31.8921 12.0342 31.2562 11.2203Z" fill="#F29B4C"/>
<path d="M39.7619 26.9611C38.2602 26.8638 36.4542 24.7363 35.814 23.696C35.7744 23.6318 35.7001 23.5972 35.6258 23.608L34.9914 23.7039C34.8905 23.7198 34.8191 23.8142 34.8328 23.9159C35.2921 27.3353 33.9908 29.2969 30.9664 29.7461C30.6607 29.7908 30.337 29.8196 30.0032 29.8312C29.965 29.8326 29.9268 29.8333 29.8886 29.8333C27.4857 29.8333 26.2573 27.2293 26.0374 25.9453C26.0215 25.853 25.9325 25.7852 25.849 25.7889L21.7042 26.101C21.5293 26.0967 21.3639 26.1075 21.2017 26.1313C20.5447 26.2286 19.9376 26.5538 19.4923 27.0476C19.3726 27.1803 19.1608 27.2084 19.0101 27.1118C18.8424 27.0036 18.7328 26.8357 18.7015 26.6388C18.6701 26.442 18.7222 26.2481 18.8481 26.0938L19.2383 25.6137C19.6323 25.1299 20.1889 24.8134 20.8059 24.7219L26.1224 23.6801C26.1873 23.6707 26.2378 23.6347 26.2659 23.5821C26.9832 22.244 28.6897 22.0227 29.4178 21.9275C29.4813 21.9196 29.5368 21.9124 29.5829 21.9052C29.7041 21.8871 29.7762 21.8814 29.7776 21.8814L35.3771 21.4531C35.1291 20.7827 34.7903 20.1259 34.3649 19.5679C33.1314 17.9501 31.2036 16.9747 29.0754 16.8903L22.9869 16.7872C21.6654 16.7425 20.841 15.0577 19.8862 13.1061C19.1957 11.6952 18.413 10.0955 17.4335 9.19501C17.1616 8.94485 16.7752 8.82734 16.3479 8.8641C15.8675 8.90448 15.4205 9.1359 15.1522 9.48267C14.1453 10.7847 12.9312 13.3411 12.8657 18.126C12.865 18.1801 12.8559 18.2334 12.8389 18.2839C12.8117 18.3653 10.124 26.4651 10.4269 32.1367C10.6381 36.0925 8.60687 40.0591 7.18359 42.32C11.6873 47.6131 18.3788 50.9892 25.8464 51.0347C25.4194 48.1617 24.0655 43.8866 19.9772 40.3323C16.9955 37.7398 16.4722 33.3638 19.3442 30.4706C21.9167 27.8789 24.656 30.3553 28.9716 30.7215C34.9893 31.2319 34.3325 27.4463 36.1579 28.279C36.8976 28.6164 37.4895 28.8723 37.9617 29.067C38.0972 29.1232 38.2349 29.1643 38.3741 29.1938C38.2839 28.718 38.3517 28.1946 38.6192 27.9646C39.0539 27.589 39.635 27.385 40.2348 27.2776C40.0827 27.1788 39.9248 27.0736 39.7619 26.9611Z" fill="#F29B4C"/>
<path d="M40.63 27.9406C40.5211 28.1713 40.7518 28.5094 41.1462 28.6954C41.5405 28.8829 41.9486 28.8476 42.0574 28.6176C42.1663 28.3869 41.9356 28.0495 41.5412 27.862C41.1469 27.6753 40.7388 27.7106 40.63 27.9406Z" fill="white"/>
<path d="M30.5513 21.3235C31.5102 21.6234 32.42 21.4424 32.5836 20.919C32.7473 20.3956 32.1035 19.728 31.1446 19.4274C30.1865 19.1275 29.2767 19.3084 29.1123 19.8318C28.9487 20.3552 29.5925 21.0236 30.5513 21.3235Z" fill="white"/>
<path d="M35.1253 20.8487C34.9184 20.4009 34.6697 19.972 34.3799 19.5877C34.1204 20.0751 34.0872 20.548 34.341 20.7816C34.5198 20.9474 34.8081 20.9604 35.1253 20.8487Z" fill="white"/>
<path d="M32.8926 22.9115C32.2264 22.4897 30.3412 22.8444 29.9699 22.9201C29.9338 22.9273 29.9086 22.9605 29.9108 22.9973C29.9129 23.034 29.9418 23.0636 29.9785 23.0665C29.9966 23.0679 31.7484 23.2063 32.3692 23.5783C32.8212 23.8487 33.3489 24.2546 33.8406 25.2192C33.855 25.248 33.886 25.2639 33.9177 25.2588C33.9214 25.2588 33.925 25.2574 33.9286 25.2567C33.9632 25.2459 33.9848 25.212 33.9797 25.1759C33.9711 25.106 33.744 23.4514 32.8926 22.9115Z" fill="white"/>
<path d="M36.2217 22.2507C36.2383 22.2521 37.8517 22.3798 38.4227 22.7215C38.8387 22.9702 39.3246 23.3444 39.7774 24.2326C39.7918 24.2614 39.8228 24.2765 39.8538 24.2722C39.8581 24.2715 39.8617 24.2708 39.8653 24.2693C39.8999 24.2585 39.9216 24.2246 39.9165 24.1893C39.9079 24.1244 39.6988 22.5968 38.9115 22.0971C38.2958 21.7071 36.5555 22.0344 36.213 22.1044C36.177 22.1116 36.1518 22.1447 36.1539 22.1815C36.1561 22.2183 36.1849 22.2478 36.2217 22.2507Z" fill="white"/>
<path d="M33.5858 49.8436C33.4661 48.5719 33.518 47.458 33.5187 47.4443C33.5339 47.1401 33.5584 46.8265 33.5901 46.5093C33.877 46.3997 33.9484 46.2433 33.9484 46.2433C34.8669 47.2021 36.2417 47.9007 37.1321 47.8935C37.2135 47.8928 37.2914 47.8863 37.3649 47.8733C38.5271 47.6678 38.5833 46.7328 38.0059 44.9477C37.7369 44.1143 38.6763 42.162 37.8119 41.6112C37.7038 41.542 37.4688 41.519 37.308 41.5204C37.2698 41.5204 37.2352 41.5211 37.2085 41.5254C35.7839 41.7201 34.5533 42.8794 34.0941 43.34C34.4206 41.7547 34.789 40.4138 34.9397 39.8875C41.7511 38.6828 42.9046 37.9568 43.7215 34.2043C43.8462 34.151 43.9507 34.05 44.0033 33.9138C45.9434 28.8614 43.6371 27.8262 42.2594 27.2083C42.1491 27.1586 42.0438 27.111 41.9443 27.0634C41.6156 26.9055 41.196 26.6655 40.713 26.3482C40.7887 26.1327 40.8348 25.8566 40.8132 25.5235C40.7382 24.3722 40.4188 23.2734 39.8652 22.2569C39.5105 21.6081 38.7895 21.2245 38.0246 21.28L36.4501 21.3745C36.161 20.4986 35.7385 19.6565 35.1906 18.9377C34.7667 18.3826 34.2728 17.8938 33.7235 17.4771C34.0573 13.7535 32.8432 11.5661 32.0747 10.5813C31.7532 10.1697 31.2709 9.92095 30.7503 9.89788C30.2262 9.87625 29.7331 10.0796 29.3791 10.4588C28.1701 11.755 27.2437 14.5854 26.894 15.7678L23.0244 15.7497C22.324 15.7259 21.5243 14.0916 20.8189 12.6497C20.0882 11.1559 19.2597 9.46315 18.1362 8.43077C17.6479 7.98162 16.9821 7.76823 16.2604 7.82951C15.4955 7.89439 14.7743 8.27504 14.3312 8.84747C13.2333 10.267 11.9113 13.0109 11.8291 18.0315C11.5319 18.9341 9.08945 26.5573 9.39044 32.1915C9.57796 35.7031 7.8268 39.2819 6.49039 41.4678C3.23766 37.2842 1.29769 32.0321 1.29769 26.3338C1.29769 12.7131 12.3792 1.6316 26.0001 1.6316C39.6208 1.6316 50.7023 12.7131 50.7023 26.3338C50.7023 37.3094 43.5066 46.6347 33.5858 49.8436ZM36.1538 22.1819C36.1516 22.1452 36.1768 22.112 36.2129 22.1048C36.5553 22.0349 38.2957 21.7076 38.9114 22.0976C39.6986 22.5972 39.9077 24.1249 39.9163 24.1898C39.9214 24.2251 39.8998 24.259 39.8652 24.2698C39.8616 24.2712 39.8579 24.2719 39.8536 24.2727C39.8226 24.277 39.7916 24.2619 39.7772 24.233C39.3245 23.3448 38.8385 22.9707 38.4226 22.7219C37.8516 22.3802 36.2381 22.2526 36.2215 22.2512C36.1848 22.2483 36.1559 22.2187 36.1538 22.1819ZM29.9104 22.9981C29.9083 22.9613 29.9335 22.9281 29.9696 22.9209C30.3408 22.8452 32.2261 22.4905 32.8922 22.9123C33.7437 23.4522 33.9708 25.1068 33.9794 25.1767C33.9845 25.2128 33.9628 25.2467 33.9282 25.2575C33.9246 25.2582 33.921 25.2596 33.9174 25.2596C33.8857 25.2647 33.8547 25.2488 33.8403 25.22C33.3486 24.2554 32.8209 23.8495 32.3688 23.5791C31.7481 23.2071 29.9962 23.0687 29.9782 23.0673C29.9414 23.0644 29.9126 23.0348 29.9104 22.9981ZM41.1463 28.6956C40.7519 28.5096 40.5212 28.1715 40.6301 27.9408C40.7389 27.7108 41.147 27.6755 41.5413 27.8622C41.9357 28.0497 42.1664 28.3871 42.0575 28.6178C41.9487 28.8477 41.5406 28.8831 41.1463 28.6956ZM43.4273 32.3811C43.3033 32.1446 43.1462 31.8541 42.9457 31.4943C43.1361 30.8793 43.1793 30.4302 43.1959 29.9984C43.1973 29.9702 43.1988 29.9421 43.2002 29.914L43.1988 29.9306C43.2009 29.8657 43.2031 29.8037 43.2046 29.7439C43.2089 29.599 43.2146 29.454 43.2154 29.3091C43.2183 29.2075 43.2146 29.1145 43.2074 29.0273C43.72 29.6141 43.9471 30.5715 43.4273 32.3811ZM32.7271 16.834C31.6436 16.2457 30.4115 15.904 29.1167 15.8528L27.9675 15.8089C28.341 14.5905 29.1585 12.2171 30.1383 11.1667C30.2868 11.0081 30.485 10.9259 30.7042 10.9346C30.9212 10.9447 31.1223 11.0485 31.2564 11.2208C31.8923 12.0347 32.8742 13.8039 32.7271 16.834ZM26.0001 51.0368C25.9487 51.0368 25.8978 51.0346 25.8466 51.0346C18.379 50.9892 11.6875 47.613 7.18379 42.3199C8.60707 40.0591 10.6383 36.0925 10.4271 32.1367C10.1242 26.465 12.8119 18.3653 12.8391 18.2838C12.8561 18.2334 12.8652 18.18 12.8659 18.1259C12.9314 13.3411 14.1455 10.7846 15.1524 9.48262C15.4207 9.13585 15.8677 8.90443 16.3481 8.86406C16.7754 8.82729 17.1618 8.9448 17.4337 9.19496C18.4132 10.0954 19.1959 11.6952 19.8864 13.1061C20.8412 15.0576 21.6656 16.7425 22.9871 16.7872L29.0756 16.8903C31.2038 16.9746 33.1316 17.95 34.3651 19.5678C34.7905 20.1258 35.1293 20.7826 35.3773 21.4531L29.7778 21.8813C29.7763 21.8813 29.7043 21.8871 29.5831 21.9051C29.537 21.9123 29.4815 21.9195 29.418 21.9275C28.6899 22.0226 26.9834 22.2439 26.2661 23.582C26.238 23.6346 26.1875 23.6707 26.1226 23.6801L20.8061 24.7218C20.1891 24.8134 19.6325 25.1299 19.2385 25.6136L18.8483 26.0938C18.7224 26.248 18.6703 26.442 18.7017 26.6388C18.733 26.8356 18.8426 27.0036 19.0103 27.1117C19.161 27.2083 19.3728 27.1802 19.4925 27.0476C19.9378 26.5537 20.5449 26.2286 21.2019 26.1312C21.3641 26.1075 21.5295 26.0966 21.7044 26.101L25.8492 25.7888C25.9327 25.7852 26.0217 25.853 26.0376 25.9452C26.2574 27.2292 27.4859 29.8333 29.8888 29.8333C29.927 29.8333 29.9652 29.8325 30.0034 29.8311C30.3372 29.8196 30.6609 29.7907 30.9666 29.746C33.991 29.2969 35.2922 27.3352 34.833 23.9158C34.8193 23.8142 34.8907 23.7197 34.9916 23.7038L35.626 23.608C35.7003 23.5971 35.7746 23.6318 35.8142 23.6959C36.4544 24.7362 38.2604 26.8637 39.7621 26.961C39.925 27.0735 40.0829 27.1788 40.235 27.2775C39.6352 27.385 39.0541 27.589 38.6194 27.9646C38.3519 28.1946 38.2841 28.718 38.3743 29.1938C38.4471 29.5744 38.6208 29.9255 38.8775 30.0726C39.7022 30.5448 40.7245 30.5643 41.4959 30.9925C41.9934 32.7992 40.9235 33.9981 40.4498 34.3031C39.1356 35.148 38.2359 35.3475 36.7103 35.4933C34.1176 35.7411 31.0329 34.1027 30.2861 33.7018C30.033 33.5663 29.7187 33.6614 29.5831 33.9138C29.4483 34.1668 29.5428 34.4812 29.7958 34.6167C30.5578 35.0262 33.454 36.5632 35.9887 36.5596C36.3023 36.5592 36.4785 36.5537 36.7911 36.5286C38.516 36.3904 39.5148 36.1386 41.0107 35.1761C41.6106 34.7904 42.2673 33.9909 42.5355 32.9239C42.6638 33.1676 42.7626 33.3637 42.8116 33.4769C42.0799 37.2142 41.6524 37.6879 33.8028 39.0317C32.5613 39.2437 31.8267 40.098 31.6191 41.5709C31.5787 41.8542 31.7762 42.1173 32.0603 42.157C32.0848 42.1606 32.1093 42.1628 32.1338 42.1628C32.3883 42.1628 32.6104 41.9753 32.6471 41.7158C32.8108 40.5558 33.3032 40.2177 33.8035 40.0908C33.6117 40.7908 33.3212 41.9176 33.0595 43.2031C33.0545 43.2031 33.0494 43.2016 33.0444 43.2016C32.5361 43.1598 32.2383 43.3199 32.0639 43.3977C32.0639 43.3977 31.7697 42.8491 30.9046 42.219C29.7381 41.3676 28.9055 41.17 27.6633 41.1707C27.6582 41.1707 27.6532 41.1707 27.6481 41.1707C27.398 41.1729 27.1853 41.2176 27.0166 41.3092C26.6619 41.5017 26.3692 41.9263 26.4117 42.6523C26.4485 43.2694 26.9654 44.2441 26.6432 45.2066C26.2185 46.4776 26.2048 48.3599 27.721 48.3477C29.4721 48.334 30.5153 47.7825 31.255 47.2612C31.8981 46.8078 32.1468 46.3615 32.1468 46.3615C32.1468 46.3615 32.3263 46.4595 32.544 46.5331C32.5166 46.8236 32.4957 47.1113 32.4813 47.3939C32.4784 47.4537 32.4193 48.7197 32.5729 50.1471C30.4793 50.7261 28.2754 51.0368 26.0001 51.0368ZM26.0001 0.333912C11.6636 0.333912 0 11.998 0 26.3338C0 40.6704 11.6636 52.3345 26.0001 52.3345C40.3367 52.3345 52 40.6704 52 26.3338C52 11.998 40.3367 0.333912 26.0001 0.333912Z" fill="#3C2C2D"/>
<path d="M17.3583 11.0623C17.41 11.0053 17.4414 10.9765 17.445 10.9736C17.5811 10.859 17.5991 10.655 17.4848 10.518C17.3701 10.3803 17.1658 10.3615 17.0279 10.4769C16.9479 10.5432 15.0729 12.1653 15.3851 17.0569C15.3915 17.1557 15.4429 17.2465 15.5246 17.3035C15.547 17.3186 16.195 17.4671 16.3635 17.049C16.6765 16.274 16.7985 15.5725 17.1181 15.4939C17.425 15.4182 17.9244 16.4412 18.0197 16.5501C18.0197 16.5501 18.1142 15.6583 18.4137 15.6583C18.6224 15.6583 18.9628 16.0598 19.1501 16.3035C19.5008 16.4513 19.4842 16.3504 19.5002 15.9748C19.5305 15.2646 18.3731 12.0096 17.3583 11.0623Z" fill="#3C2C2D"/>
<path d="M29.4614 15.8722C29.4614 15.8722 30.0295 12.69 31.0987 12.69C31.9227 12.69 32.1621 16.5874 32.1621 16.5874L29.4614 15.8722Z" fill="#3C2C2D"/>
<path d="M30.3543 14.1348C30.3392 14.1348 30.3233 14.1333 30.3074 14.1304C30.1712 14.1045 30.0811 13.974 30.1063 13.8377C30.1121 13.8067 30.2562 13.0584 31.1048 12.4348C31.2173 12.3526 31.3751 12.3771 31.458 12.4889C31.5402 12.6013 31.5157 12.7592 31.404 12.8421C30.7256 13.3396 30.6066 13.9062 30.6023 13.93C30.5785 14.0504 30.4725 14.1348 30.3543 14.1348Z" fill="#3C2C2D"/>
<path d="M77.6943 21.567C77.6352 20.8284 77.3582 20.2522 76.8634 19.8386C76.3759 19.4249 75.6335 19.2181 74.6364 19.2181C74.0011 19.2181 73.4804 19.2957 73.0741 19.4508C72.6753 19.5985 72.3798 19.8017 72.1878 20.0602C71.9957 20.3187 71.896 20.6142 71.8886 20.9465C71.8739 21.2198 71.9219 21.4673 72.0327 21.6889C72.1509 21.9031 72.3355 22.0988 72.5866 22.2761C72.8378 22.446 73.1591 22.6011 73.5506 22.7414C73.942 22.8818 74.4074 23.0073 74.9466 23.1181L76.808 23.517C78.0636 23.7829 79.1384 24.1338 80.0321 24.5695C80.9259 25.0053 81.6571 25.5187 82.2259 26.1096C82.7946 26.6931 83.2119 27.3505 83.4778 28.0818C83.7511 28.813 83.8915 29.6107 83.8989 30.4749C83.8915 31.967 83.5185 33.2301 82.7798 34.2642C82.0412 35.2982 80.9849 36.0849 79.6111 36.6241C78.2446 37.1633 76.6011 37.4329 74.6807 37.4329C72.7085 37.4329 70.9875 37.1411 69.5176 36.5576C68.0551 35.9741 66.9176 35.0767 66.1051 33.8653C65.3 32.6465 64.8938 31.088 64.8864 29.1897H70.7364C70.7733 29.884 70.9469 30.4676 71.2571 30.9403C71.5673 31.413 72.0031 31.7713 72.5645 32.015C73.1332 32.2588 73.8091 32.3806 74.592 32.3806C75.2494 32.3806 75.7997 32.2994 76.2429 32.1369C76.6861 31.9744 77.0222 31.7491 77.2511 31.461C77.4801 31.173 77.5983 30.8443 77.6057 30.4749C77.5983 30.1278 77.4838 29.8249 77.2622 29.5664C77.048 29.3005 76.6935 29.0642 76.1986 28.8573C75.7037 28.6431 75.0352 28.4437 74.1932 28.259L71.933 27.7715C69.9239 27.3357 68.3395 26.6082 67.1798 25.5889C66.0276 24.5622 65.4551 23.1624 65.4625 21.3897C65.4551 19.9494 65.8392 18.69 66.6148 17.6116C67.3977 16.5258 68.4798 15.6801 69.8611 15.0744C71.2497 14.4687 72.8415 14.1659 74.6364 14.1659C76.4682 14.1659 78.0526 14.4724 79.3895 15.0855C80.7264 15.6985 81.7568 16.5627 82.4807 17.6781C83.2119 18.786 83.5813 20.0823 83.5886 21.567H77.6943ZM86.2422 37.167V14.4761H92.4024V23.3397H100.557V14.4761H106.717V37.167H100.557V28.3034H92.4024V37.167H86.2422ZM115.802 14.4761V37.167H109.642V14.4761H115.802ZM118.722 37.167V14.4761H128.561C130.289 14.4761 131.74 14.7088 132.915 15.1741C134.097 15.6394 134.987 16.2968 135.585 17.1463C136.191 17.9957 136.493 18.9965 136.493 20.1488C136.493 20.9835 136.309 21.7443 135.939 22.4312C135.578 23.1181 135.068 23.6943 134.411 24.1596C133.753 24.6176 132.985 24.9352 132.106 25.1124V25.334C133.081 25.371 133.967 25.6184 134.765 26.0764C135.563 26.5269 136.198 27.1511 136.671 27.9488C137.143 28.7392 137.38 29.6698 137.38 30.7409C137.38 31.9818 137.055 33.086 136.405 34.0536C135.762 35.0213 134.846 35.782 133.657 36.336C132.468 36.89 131.05 37.167 129.403 37.167H118.722ZM124.882 32.2477H127.763C128.797 32.2477 129.572 32.0556 130.089 31.6715C130.607 31.2801 130.865 30.7039 130.865 29.9431C130.865 29.4113 130.743 28.9607 130.499 28.5914C130.256 28.2221 129.909 27.9414 129.458 27.7494C129.015 27.5573 128.479 27.4613 127.851 27.4613H124.882V32.2477ZM124.882 23.6499H127.408C127.947 23.6499 128.424 23.565 128.838 23.3951C129.251 23.2252 129.572 22.9815 129.801 22.6639C130.038 22.3389 130.156 21.9437 130.156 21.4784C130.156 20.7766 129.905 20.2411 129.403 19.8718C128.9 19.4951 128.265 19.3068 127.497 19.3068H124.882V23.6499Z" fill="#3C2C2D"/>
<path d="M145.457 37.167H138.809L146.299 14.4761H154.719L162.209 37.167H155.561L150.598 20.7249H150.42L145.457 37.167ZM144.216 28.2147H156.714V32.8238H144.216V28.2147ZM164.395 37.167V14.4761H174.189C175.873 14.4761 177.347 14.7826 178.61 15.3957C179.873 16.0088 180.855 16.8914 181.557 18.0437C182.258 19.196 182.609 20.5772 182.609 22.1874C182.609 23.8124 182.247 25.1826 181.524 26.298C180.807 27.4133 179.799 28.2553 178.499 28.8241C177.206 29.3928 175.696 29.6772 173.967 29.6772H168.117V24.8909H172.726C173.45 24.8909 174.067 24.8022 174.577 24.6249C175.094 24.4403 175.489 24.1485 175.762 23.7497C176.043 23.3508 176.183 22.8301 176.183 22.1874C176.183 21.5374 176.043 21.0093 175.762 20.6031C175.489 20.1894 175.094 19.8866 174.577 19.6945C174.067 19.4951 173.45 19.3954 172.726 19.3954H170.555V37.167H164.395ZM177.69 26.7522L183.363 37.167H176.671L171.131 26.7522H177.69ZM184.615 19.4397V14.4761H204.336V19.4397H197.511V37.167H191.44V19.4397H184.615Z" fill="#FE6768"/>
</svg>
